<?xml version="1.0" encoding="UTF-8" standalone="no"?>
<svg width="70px" height="70px" viewBox="0 0 70 70" version="1.1" xmlns="http://www.w3.org/2000/svg" xmlns:xlink="http://www.w3.org/1999/xlink">
    <!-- Generator: Sketch 3.8.1 (29687) - http://www.bohemiancoding.com/sketch -->
    <title>Group</title>
    <desc>Created with Sketch.</desc>
    <defs></defs>
    <g id="Page-1" stroke="none" stroke-width="1" fill="none" fill-rule="evenodd">
        <g id="Group">
            <circle id="Oval-1" fill="#9012FE" cx="35" cy="35" r="35"></circle>
            <path d="M51.162,35 L19.142,35 C18.209,35 17.441,34.198 17.441,33.286 C17.441,33.134 17.469,32.962 17.5,32.824 L19.204,20.925 C19.349,20.152 20.045,20 20.878,20 L49.431,20 C50.258,20 50.96,20.139 51.103,20.909 L52.807,33.025 C52.833,33.166 52.867,33.249 52.867,33.401 C52.866,34.313 52.094,35 51.162,35 L51.162,35 Z M49.881,48.345 C48.078,48.345 46.616,46.926 46.616,45.157 C46.616,43.4 48.078,41.983 49.881,41.983 C51.672,41.983 53.137,43.4 53.137,45.157 C53.137,46.926 51.672,48.345 49.881,48.345 L49.881,48.345 Z M20.38,48.345 C18.59,48.345 17.127,46.926 17.127,45.157 C17.127,43.4 18.59,41.983 20.38,41.983 C22.188,41.983 23.648,43.4 23.648,45.157 C23.648,46.926 22.188,48.345 20.38,48.345 L20.38,48.345 Z M26,13 L46,13 L46,16 L26,16 C24,16 24,13 26,13 L26,13 Z M54.202,17.59 C53.618,14.777 51.912,13.644 49.129,12.512 C46.351,11.384 39.913,10.032 35.071,10.032 C30.208,10.032 23.737,11.385 20.956,12.512 C18.174,13.645 16.496,14.777 15.917,17.59 L14,33.249 L14,55 L17,55 L17,57 C17,61 22,61 22,57 L22,55 L47,55 L47,57 C47,61 53,61 53,57 L53,55 L56,55 L56,33.249 L54.202,17.59 L54.202,17.59 Z" id="Shape" fill="#FFFFFF"></path>
        </g>
    </g>
</svg>